<svg xmlns="http://www.w3.org/2000/svg" width="1024" height="1024"><path fill="#e2e2da" d="M0 0h1024v1024H0V0"/><path fill="#5eaa63" d="m0 511.986 141.077-.002-.088 171.217-.039 45.819c-.019 18.382-.739 34.073 3.258 52.297a127.9 127.9 0 0 0 33.621 62.579c26.814 27.247 58.833 39.418 96.669 39.56l342.29-.019 94.424.032c20.253.009 47.224 1.149 66.271-2.365a129.9 129.9 0 0 0 67.136-34.868c22.17-21.942 34.92-50.032 38.138-80.954.994-9.556.864-18.855.912-28.436.376-74.909-.647-149.97.238-224.86l140.093.042V1024H0z"/><path fill="#e4623c" d="M0 0h1024v512.028l-140.093-.042q.01-.62.014-1.24l-.078-161.322.019-51.476c.004-21.319 1.031-38.138-3.992-59.106a123.3 123.3 0 0 0-33.167-59.163 129.1 129.1 0 0 0-67.61-36.395c-19.15-3.709-49.06-2.54-69.211-2.49l-84.386-.114-339.383.041c-10.961-.039-22.41-.005-33.28 1.412a126.28 126.28 0 0 0-72.815 35.417c-21.497 21.506-35.542 48.634-38.16 79.188-1.222 14.272-.795 28.833-.751 43.165l.031 48.918-.061 163.163L0 511.986z"/><path fill="#282728" d="m441.967 348.416-.065-29.421c-.009-5.255-.124-10.723.188-15.996.325-5.498 3.543-6.81 8.746-7.826 22.711-4.436 45.463-8.802 68.198-13.184L673.41 252.86l41.86-7.76c7.735-1.481 18.403-4.013 26.326-4.523 1.766-.113 3.082 1.201 4.149 2.47 1.161 5.838.811 17.821.816 24.335l.014 37.999.042 143.566.009 149.361.009 39.343c.037 10.285.845 23.695-1.812 33.505-16.53 61.039-102.561 81.651-152.036 48.808-13.372-8.881-23.857-23.097-26.578-39.008-7.84-45.88 36.2-79.661 77.202-86.111 27.963-4.399 55.455.454 78.747 17.11a41 41 0 0 1 3.766 3.017l-.158-238.207a3105 3105 0 0 1-49.715 9.474c-10.568 2.02-21.43 4.45-32.024 6.207 21.153 26.282 28.694 64.02 25.087 97.109a142.08 142.08 0 0 1-53.451 95.353c-31.634 25.14-70.492 37.504-110.95 32.73a162 162 0 0 1-26.314-5.426c-2.014-.612-15.484-5.539-15.706-5.552-.546 1.788-.492 2.683-.566 4.522l.042 62.529c.031 12.476.955 30.66-1.662 42.431-7.955 35.793-45.791 59.981-80.199 64.5-27.297 3.584-54.372-.108-76.755-16.281-29.895-21.602-32.542-59.482-10.509-87.703 16.457-21.144 42.404-33.288 68.857-36.316 29.697-3.399 56.939 2.809 80.614 21.478-.062-23.448.22-47.257-.149-70.668-.335-5.074-.136-12.051-.323-17.457l.264-1.7c-.16-6.01-.026-13.436.163-19.458-.417-3.017-.137-17.032-.128-21.072-.474-5.028-.176-14.348-.36-19.998l.053-.996c.057-6.544.209-13.245-.042-19.773l.051-.851c.327-6.552.324-13.117-.009-19.669l-.021-.858c.323-5.878.061-13.777-.089-19.701l.015-.716c.292-5.781.201-14.025-.034-19.802l.02-.651a465 465 0 0 0-.003-19.005l.164-1.463c-.309-13.107-.078-26.745-.159-39.923l.059-1.45c-.168-5.814-.025-12.329-.02-18.193"/><path fill="#2f6bbe" d="M531.282 414.032c3.525-1.258 11.347-2.542 15.342-3.29l28.864-5.29c22.84-4.145 45.798-9.035 68.539-13.006 21.153 26.282 28.694 64.02 25.087 97.109a142.08 142.08 0 0 1-53.451 95.353c-31.634 25.14-70.492 37.504-110.95 32.73a162 162 0 0 1-26.314-5.426c-2.014-.612-15.484-5.539-15.706-5.552-.546 1.788-.492 2.683-.566 4.522-1.099-28.647.272-58.5-.319-87.292-.243-11.8-.538-26.178.434-37.784-.924-6.146-.451-26.148-.19-32.809 5.301-12.379 14.989-22.772 25.402-31.027 10.262-3.043 33.289-6.735 43.828-8.238"/><path fill="#e2e2da" d="M531.282 414.032c19.816 5.824 33.261 12.178 43.861 31.429a58.6 58.6 0 0 1 4.585 44.351 61.46 61.46 0 0 1-29.928 36.604c-30.424 16.453-66.803 4.459-82.287-26.207-2.117-4.193-4.437-9.46-5.271-14.103-.924-6.146-.451-26.148-.19-32.809 5.301-12.379 14.989-22.772 25.402-31.027 10.262-3.043 33.289-6.735 43.828-8.238"/><path fill="#282728" d="M516.332 433.484c22.316-2.511 42.406 13.636 44.753 35.97s-13.945 42.305-36.296 44.49c-22.12 2.162-41.842-13.928-44.166-36.033-2.323-22.104 13.622-41.943 35.709-44.427"/><path fill="#2f6bbe" d="M461.882 426.727c5.312-1.523 20.017-3.872 25.572-4.457-10.413 8.255-20.101 18.648-25.402 31.027-.483-6.817-.59-19.948-.17-26.57M318.722 376.482c28.445-2.154 57.493-3.107 85.98-5.439 12.037-.986 25.387-1.354 37.226-2.984.081 13.178-.15 26.816.159 39.923-6.18-1.221-20.355-2.15-26.999-2.686l-55.455-4.395c-7.654-.548-26.782-1.52-33.913-2.779 2.23-.722 19.85-1.953 22.962-2.206a4114 4114 0 0 1 55.131-4.1c11.711-.806 29.513-1.384 40.608-4.212-5.077-1.057-14.07-1.679-19.587-2.215a1772 1772 0 0 0-43.245-3.578l-37.343-2.856c-7.638-.586-16.02-1.427-23.594-1.482zM442.035 470.178c.333 6.552.336 13.117.009 19.669-4.158-1.021-27.41-1.847-33.294-2.295-37.974-2.891-76.179-4.658-114.187-7.293 12.312-1.571 27.347-2.307 39.779-3.123l68.425-4.161c12.344-.723 27.197-1.21 39.268-2.797M285.347 459.74c42.605-3.007 85.463-4.426 128.072-7.596 9.244-.687 19.383-.928 28.506-2.525.15 5.924.412 13.823.089 19.701-2.64-.591-25.192-1.713-29.331-2.019a5220 5220 0 0 0-87.158-5.295c-9.692-.53-31.544-.967-40.178-2.266M441.94 448.903c-4.946-1.372-25.946-1.967-32.241-2.395l-85.977-5.735c-4.911-.295-24.361-1.001-27.338-2.009l100.661-6.134 28.628-1.907c4.924-.352 11.539-.558 16.233-1.622.235 5.777.326 14.021.034 19.802M441.993 490.698c.251 6.528.099 13.229.042 19.773-8.172-1.208-19.874-1.513-28.595-2.234-27.417-2.266-55.186-3.443-82.615-5.377-5.622-.396-24.946-1.124-28.957-2.106 9.791-1.033 22.199-1.475 32.289-2.175l70.243-4.896c10.466-.737 27.622-1.494 37.593-2.985M313.668 521.705c11.224-1.693 29.725-2.5 41.478-3.409l86.836-6.829c.184 5.65-.114 14.97.36 19.998-6.255-2.793-113.104-8.482-128.674-9.76M441.923 409.445a465 465 0 0 1 .003 19.005c-2.173-.517-11.218-1.006-14.006-1.204l-29.734-2.126-52.029-3.949c-9.538-.743-22.796-2.088-32.133-2.173l2.856-1.039c9.223.364 27.095-1.712 36.973-2.362zM442.342 531.465c-.009 4.04-.289 18.055.128 21.072l-.464-.948c-2.996-1.531-114.612-8.387-126.112-9.537 10.095-1.23 21.905-1.768 32.148-2.54l59.903-4.535c5.412-.406 32.616-1.931 34.397-3.512"/><path fill="#2f6bbe" d="M317.525 562.472c31.204-2.874 63.356-3.846 94.607-6.897 5.854-.571 25.907-1.71 30.338-3.038-.189 6.022-.323 13.448-.163 19.458-33.032-3.283-66.473-4.474-99.564-7.296-7.282-.622-15.23-1.127-22.495-1.214zM442.043 573.695c.187 5.406-.012 12.383.323 17.457-35.879-1.459-71.893-4.226-107.786-5.759-6.704-.286-13.558-.997-20.256-.866l-1.237-1.045c2.986.195 11.106-.502 14.28-.731l28.731-2.176c28.531-2.164 57.524-3.836 85.945-6.88M441.967 348.416c-.005 5.864-.148 12.379.02 18.193-9.598-1.818-29.783-3.136-40.329-4.012l-72.387-5.722c-1.54.115-4.963-.41-6.615-.643 4.137-.356 7.673-.647 11.814-.698z"/><path fill="#517fb6" d="M322.656 356.232c4.137-.356 7.673-.647 11.814-.698l.05.672c-1.783.08-3.612.022-5.249.669-1.54.115-4.963-.41-6.615-.643"/><path fill="#a1a7af" d="M314.024 418.998c-1.375.138-2.883-.063-4.275-.18l-.123-.22c2.619-.893 4.521-.688 7.254-.639zM310.906 376.753c2.74-.306 5.074-.266 7.816-.271l1.93.991c-2.847.04-6.802-.442-9.746-.72M305.744 584.097c3.184-.531 4.07-.631 7.343-.615l1.237 1.045c-2.842.128-5.733-.201-8.58-.43M310.969 562.784c2.539-.322 4.03-.308 6.556-.312l2.723 1.013c-2.838.107-6.397-.398-9.279-.701"/></svg>